ply
format ascii 1.0
comment VCGLIB generated
element vertex 28
property float x
property float y
property float z
property float nx
property float ny
property float nz
property uchar red
property uchar green
property uchar blue
property uchar alpha
property float texture_u
property float texture_v
element face 28
property list uchar int vertex_indices
end_header
-1.962801 -3.97218 -2.723081 -0.3657479 -0.6630578 -0.6531332 255 255 255 255 0.5805372 0.6428561
1.046162 -3.033172 -3.377901 0.2685944 -0.2095268 -0.9401891 255 255 255 255 0.4596856 0.8413072
2.248953 -3.98242 -2.121971 0.6157221 -0.6574688 -0.4343054 255 255 255 255 0.3516596 0.657328
3.726139 -2.942556 1.354091 0.9275969 -0.3216379 0.1900346 255 255 255 255 0.2107231 0.8200347
1.514116 2.497103 -2.042519 0.5485311 0.5070175 -0.664866 255 255 255 255 0.4006524 0.9997271
1.282448 3.761334 0.4296821 0.6211519 0.7793778 0.08210202 255 255 255 255 0.1313477 1
1.81828 -3.430472 3.236179 0.4297763 -0.5364575 0.7262959 255 255 255 255 0.09320946 0.7669226
-0.6304913 -3.973751 3.377901 -0.1756391 -0.6567069 0.7334078 255 255 255 255 0.01743898 0.722579
-1.962801 -3.97218 -2.723081 -0.3657479 -0.6630578 -0.6531332 255 255 255 255 0.7832602 0.07799839
-0.6304913 -3.973751 3.377901 -0.1756391 -0.6567069 0.7334078 255 255 255 255 0.8278167 0.4082446
-3.726139 -3.478863 1.318545 -0.8024241 -0.505851 0.3165919 255 255 255 255 0.9256806 0.3070821
-3.165649 -2.384359 -2.210374 -0.7680453 -0.08458741 -0.6347846 255 255 255 255 0.6522067 0.8842635
-3.38574 1.849994 0.506259 -0.894222 0.4320467 0.1170587 255 255 255 255 0.7668358 0.9987482
-1.869013 2.496356 -1.987693 -0.4625714 0.5263188 -0.7134538 255 255 255 255 0.6239191 0.9995859
1.250162 0.4691839 3.324326 0.3909445 0.2898225 0.8735933 255 255 255 255 0.07554915 0.9940807
1.282448 3.761334 0.4296821 0.6211519 0.7793778 0.08210202 255 255 255 255 0.1318881 0.3285796
-0.7187195 3.98242 -0.322633 -0.2304196 0.9441922 -0.235389 255 255 255 255 0.3369007 0.2266087
-0.2682123 3.866224 1.714195 -0.04511669 0.8343777 0.5493435 255 255 255 255 0.3020653 0.4189599
1.282448 3.761334 0.4296821 0.6211519 0.7793778 0.08210202 255 255 255 255 0.259537 1
-0.7187195 3.98242 -0.322633 -0.2304196 0.9441922 -0.235389 255 255 255 255 0.6433157 1
-1.680867 1.824398 2.585393 -0.4622532 0.3561969 0.8120627 255 255 255 255 0.8927951 0.9989029
-0.2682123 3.866224 1.714195 -0.04511669 0.8343777 0.5493435 255 255 255 255 0.9576607 1
1.250162 0.4691839 3.324326 0.3909445 0.2898225 0.8735933 255 255 255 255 1 0.9895835
-0.6304913 -3.973751 3.377901 -0.1756391 -0.6567069 0.7334078 255 255 255 255 0.9582198 0.6691785
2.248953 -3.98242 -2.121971 0.6157221 -0.6574688 -0.4343054 255 255 255 255 0.6323883 0.1184212
-3.726139 -3.478863 1.318545 -0.8024241 -0.505851 0.3165919 255 255 255 255 0.8003395 0.7414798
-0.2682123 3.866224 1.714195 -0.04511669 0.8343777 0.5493435 255 255 255 255 0.02020712 1
-3.38574 1.849994 0.506259 -0.894222 0.4320467 0.1170587 255 255 255 255 0.4782536 0.3241641
3 0 1 2 
3 3 4 5 
3 2 6 7 
3 8 9 10 
3 11 12 13 
3 3 14 6 
3 1 13 4 
3 15 16 17 
3 18 4 19 
3 12 20 21 
3 1 4 2 
3 5 14 3 
3 22 20 23 
3 21 20 22 
3 11 13 0 
3 4 13 19 
3 2 4 3 
3 2 3 6 
3 8 24 9 
3 25 12 11 
3 7 6 14 
3 23 20 25 
3 12 25 20 
3 0 13 1 
3 12 19 13 
3 26 14 5 
3 0 25 11 
3 27 17 16 
